<svg width="228" height="224" fill="none" xmlns="http://www.w3.org/2000/svg"><path fill="#FF4656" d="M0 42h190v182H0z"/><path fill-rule="evenodd" clip-rule="evenodd" d="M148.539 6.91c0 3.817-3.1 6.911-6.923 6.911-3.822 0-6.922-3.094-6.922-6.91 0-3.817 3.1-6.911 6.922-6.911 3.823 0 6.923 3.094 6.923 6.91zm19.379 26.26c0 4.58-3.719 8.293-8.306 8.293s-8.307-3.713-8.307-8.293c0-4.58 3.72-8.292 8.307-8.292s8.306 3.712 8.306 8.292zm-41.532 5.53a5.533 5.533 0 005.538-5.529 5.533 5.533 0 00-5.538-5.528 5.533 5.533 0 00-5.537 5.528 5.533 5.533 0 005.537 5.529zm51.68 17.54a43.62 43.62 0 018.867 26.428c0 24.225-19.67 43.862-43.935 43.862s-43.935-19.637-43.935-43.862a43.615 43.615 0 018.868-26.428l-49.38-39.653c-1.845 5.529.831 22.667 9.691 30.407 4.133 3.61 7.924 6.86 11.262 9.72 3.817 3.271 7.042 6.035 9.504 8.247v9.675L61.865 53.903c.922 6.91 4.702 22.444 13.008 29.354 5.18 4.31 9.751 7.578 12.39 9.466.746.533 1.338.957 1.745 1.261v11.057L71.011 89.838c-.923 9.214 6.37 27.517 16.061 34.552 6.137 4.456 16.536 13.19 27.232 22.175C124.843 155.418 135.672 164.513 143 170c7.329-5.487 18.156-14.583 28.695-23.435 10.697-8.984 21.095-17.72 27.232-22.175 9.691-7.036 16.985-25.338 16.062-34.553l-17.998 15.204V93.984c1.846-1.383 7.199-5.529 13.845-11.057 8.113-6.75 10.063-21.413 11.009-28.53l.066-.494-24.92 20.731V64.96c2.463-2.213 5.686-4.976 9.504-8.248l.006-.005c3.336-2.86 7.126-6.107 11.256-9.715 8.861-7.74 11.537-24.878 9.691-30.406L178.066 56.24zm-35.067 59.858c18.35 0 33.225-14.851 33.225-33.17 0-18.32-14.875-33.17-33.225-33.17s-33.226 14.85-33.226 33.17c0 18.319 14.876 33.17 33.226 33.17z" fill="#1F2326"/></svg>