<svg width="242" height="210" fill="none" xmlns="http://www.w3.org/2000/svg"><path fill="#FF4656" d="M0 28h190v182H0z"/><path fill-rule="evenodd" clip-rule="evenodd" d="M75.998 77.64L152.5 156l76.503-78.36a45.311 45.311 0 00-.38-63.907c-18.298-18.31-48.322-18.31-66.621 0L152.5 23.24l-9.502-9.508c-18.299-18.31-48.323-18.31-66.621 0a45.31 45.31 0 00-.38 63.908zm114.375-8.33c-10.548-.514-19.491-4.529-26.828-12.047-7.336-7.518-11.005-16.485-11.005-26.902 0 10.417-3.681 19.384-11.045 26.902-7.363 7.518-16.319 11.533-26.867 12.046 6.945.308 13.316 2.246 19.113 5.812 5.796 3.567 10.378 8.287 13.746 14.163 3.369 5.876 5.053 12.252 5.053 19.128 0-10.468 3.669-19.474 11.005-27.018 7.337-7.543 16.28-11.571 26.828-12.085z" fill="#1F2326"/></svg>