<svg width="236" height="215" fill="none" xmlns="http://www.w3.org/2000/svg"><path fill="#FF4656" d="M0 33h190v182H0z"/><path fill-rule="evenodd" clip-rule="evenodd" d="M222.746 80.5c0 37.402-31.45 67.722-70.246 67.722-38.796 0-70.246-30.32-70.246-67.722 0-37.402 31.45-67.722 70.246-67.722 38.796 0 70.246 30.32 70.246 67.722zm13.254 0c0 44.459-37.384 80.5-83.5 80.5S69 124.959 69 80.5 106.384 0 152.5 0 236 36.041 236 80.5zm-94.104-39.611l-14.654-12.951c-10.486 4.555-19.323 12.012-25.412 21.308l6.931 13.365-11.654-4.494a54.31 54.31 0 00-4.25 21.106c0 3.514.335 6.953.975 10.289l20.231-3.901 18.556-30.667-3.977 30.667-25.438 25.591a57.285 57.285 0 009.672 10.42l-.138-.233 14.579-11.5-7.577 16.697c9.071 5.608 19.859 8.859 31.435 8.859 14.368 0 27.523-5.009 37.687-13.315l-8.529-10.964-31.809-3.833 29.158-8.944 1.326-16.611-14.58-31.945L188.285 80.5v16.61l14.325 8.633a54.384 54.384 0 006.882-26.52c0-12.821-4.451-24.64-11.945-34.098l-11.912 14.93 6.113-21.217C181.251 29.034 166.944 23 151.175 23c-.443 0-.885.005-1.326.014V34.5l3.976 6.389-6.627 25.555-5.302-25.555z" fill="#1F2326"/></svg>