<svg width="236" height="215" viewBox="0 0 236 215" fill="none" xmlns="http://www.w3.org/2000/svg">
<rect y="33" width="190" height="182" fill="#FF4656"/>
<path fill-rule="evenodd" clip-rule="evenodd" d="M222.746 80.5C222.746 117.902 191.296 148.222 152.5 148.222C113.704 148.222 82.254 117.902 82.254 80.5C82.254 43.0979 113.704 12.7778 152.5 12.7778C191.296 12.7778 222.746 43.0979 222.746 80.5ZM236 80.5C236 124.959 198.616 161 152.5 161C106.384 161 69 124.959 69 80.5C69 36.0412 106.384 0 152.5 0C198.616 0 236 36.0412 236 80.5ZM141.896 40.8886L127.242 27.938C116.756 32.4934 107.919 39.9495 101.83 49.2459L108.761 62.6111L97.1066 58.1165C94.3668 64.6335 92.8578 71.7581 92.8578 79.2227C92.8578 82.737 93.1923 86.1761 93.832 89.512L114.063 85.6109L132.619 54.9444L128.642 85.6109L103.204 111.202C105.971 115.052 109.223 118.553 112.876 121.622L112.738 121.389L127.317 109.889L119.74 126.586C128.811 132.194 139.599 135.445 151.175 135.445C165.543 135.445 178.698 130.436 188.862 122.13L180.333 111.166L148.524 107.333L177.682 98.3889L179.008 81.7777L164.428 49.8331L188.285 80.5V97.1107L202.61 105.743C207.002 97.8424 209.492 88.813 209.492 79.2227C209.492 66.4018 205.041 54.5835 197.547 45.1252L185.635 60.0552L191.748 38.8377C181.251 29.0341 166.944 23.0006 151.175 23.0006C150.732 23.0006 150.29 23.0056 149.849 23.015V34.4996L153.825 40.8886L147.198 66.4443L141.896 40.8886Z" fill="#1F2326"/>
</svg>
