<svg width="242" height="210" viewBox="0 0 242 210" fill="none" xmlns="http://www.w3.org/2000/svg">
<rect y="28" width="190" height="182" fill="#FF4656"/>
<path fill-rule="evenodd" clip-rule="evenodd" d="M75.9975 77.6406L152.5 156L229.003 77.6406C246.478 59.7402 246.311 31.4314 228.623 13.7326C210.325 -4.57752 180.301 -4.57752 162.002 13.7326L152.5 23.2411L142.998 13.7326C124.699 -4.57752 94.675 -4.57752 76.3768 13.7326C58.6893 31.4314 58.5214 59.7402 75.9975 77.6406ZM190.373 69.3092C179.825 68.7962 170.882 64.781 163.545 57.2629C156.209 49.7454 152.54 40.7778 152.54 30.3608C152.54 40.7778 148.859 49.7454 141.495 57.2629C134.132 64.781 125.176 68.7962 114.628 69.3092C121.573 69.6172 127.944 71.5545 133.741 75.121C139.537 78.6875 144.119 83.4082 147.487 89.2842C150.856 95.1597 152.54 101.536 152.54 108.412C152.54 97.9437 156.209 88.9377 163.545 81.3944C170.882 73.8507 179.825 69.8226 190.373 69.3092Z" fill="#1F2326"/>
</svg>
