<svg width="228" height="224" viewBox="0 0 228 224" fill="none" xmlns="http://www.w3.org/2000/svg">
<rect y="42" width="190" height="182" fill="#FF4656"/>
<path fill-rule="evenodd" clip-rule="evenodd" d="M148.539 6.91055C148.539 10.7271 145.439 13.8211 141.616 13.8211C137.794 13.8211 134.694 10.7271 134.694 6.91055C134.694 3.09394 137.794 0 141.616 0C145.439 0 148.539 3.09394 148.539 6.91055ZM167.918 33.1702C167.918 37.7502 164.199 41.4628 159.612 41.4628C155.025 41.4628 151.305 37.7502 151.305 33.1702C151.305 28.5902 155.025 24.8776 159.612 24.8776C164.199 24.8776 167.918 28.5902 167.918 33.1702ZM126.386 38.6987C129.445 38.6987 131.924 36.2237 131.924 33.1702C131.924 30.1172 129.445 27.6417 126.386 27.6417C123.328 27.6417 120.849 30.1172 120.849 33.1702C120.849 36.2237 123.328 38.6987 126.386 38.6987ZM178.066 56.2399C183.632 63.5896 186.933 72.7435 186.933 82.6673C186.933 106.892 167.263 126.529 142.998 126.529C118.733 126.529 99.0625 106.892 99.0625 82.6673C99.0625 72.7431 102.364 63.5882 107.931 56.2385L58.5517 16.5864C56.7058 22.115 59.3822 39.2531 68.2424 46.9927C72.3751 50.603 76.1665 53.8521 79.504 56.7123C83.3215 59.9841 86.5463 62.7477 89.0084 64.9601V74.6349L61.8646 53.903C62.7874 60.8138 66.5669 76.3472 74.8734 83.2575C80.0527 87.5669 84.6243 90.8354 87.2626 92.7226C88.0092 93.2562 88.6014 93.6796 89.0084 93.9841V105.041L71.011 89.8378C70.0881 99.0521 77.3819 117.355 87.0723 124.39C93.2093 128.846 103.608 137.58 114.304 146.565C124.843 155.418 135.672 164.513 143 170C150.329 164.513 161.156 155.417 171.695 146.565C182.392 137.581 192.79 128.845 198.927 124.39C208.618 117.354 215.912 99.0516 214.989 89.8374L196.991 105.041V93.9836C198.837 92.6014 204.19 88.4551 210.836 82.927C218.949 76.1765 220.899 61.5139 221.845 54.3966L221.911 53.9026L196.991 74.634V64.9596C199.454 62.7472 202.677 59.9841 206.495 56.7123L206.501 56.7071C209.837 53.8479 213.627 50.6002 217.757 46.9922C226.618 39.2522 229.294 22.1141 227.448 16.5858L178.066 56.2399ZM142.999 116.097C161.349 116.097 176.224 101.246 176.224 82.9266C176.224 64.607 161.349 49.7563 142.999 49.7563C124.649 49.7563 109.773 64.607 109.773 82.9266C109.773 101.246 124.649 116.097 142.999 116.097Z" fill="#1F2326"/>
</svg>
